<?xml version="1.0" encoding="utf-8"?>
<!-- Generator: Adobe Illustrator 22.1.0, SVG Export Plug-In . SVG Version: 6.00 Build 0)  -->
<svg version="1.1" id="Layer_1" xmlns="http://www.w3.org/2000/svg" xmlns:xlink="http://www.w3.org/1999/xlink" x="0px" y="0px"
	 viewBox="0 0 500 500" style="enable-background:new 0 0 500 500;" xml:space="preserve">
<style type="text/css">
	.st0{fill:#3563EA;}
	.st1{fill:url(#SVGID_1_);}
	.st2{fill:url(#SVGID_2_);}
</style>
<g>
	<rect x="94.8" y="288.8" class="st0" width="83.3" height="51.8"/>
	<linearGradient id="SVGID_1_" gradientUnits="userSpaceOnUse" x1="323.9298" y1="307.7942" x2="410.1473" y2="70.9135">
		<stop  offset="1.143293e-03" style="stop-color:#3578EA"/>
		<stop  offset="0.4054" style="stop-color:#3575EA"/>
		<stop  offset="0.6452" style="stop-color:#356DEA"/>
		<stop  offset="0.8415" style="stop-color:#355FEA"/>
		<stop  offset="1" style="stop-color:#354DEA"/>
	</linearGradient>
	<path class="st1" d="M288.1,146.1c-0.4,0.7-0.7,1.5-1.1,2.2c-0.1,0.2-0.2,0.5-0.3,0.7c-0.3,0.6-0.6,1.2-0.8,1.9
		c-0.2,0.4-0.3,0.7-0.5,1.1c-0.2,0.5-0.4,1-0.6,1.5c-0.2,0.5-0.4,1-0.6,1.5c-0.1,0.4-0.3,0.7-0.4,1.1c-0.2,0.6-0.5,1.3-0.7,1.9
		c-0.1,0.2-0.2,0.5-0.3,0.7c-0.3,0.8-0.6,1.5-0.8,2.3c0,0.1-0.1,0.2-0.1,0.3c-14.8,44-4.8,94.5,30.3,129.6l0.1-0.1
		c22.8,22.8,54.3,36.9,89.1,36.9v-64.6c-34,0-61.6-27.6-61.6-61.6c0-6.3,1-12.5,2.7-18.2c0-0.1,0.1-0.2,0.1-0.3
		c0.3-0.8,0.5-1.6,0.8-2.4c0.1-0.3,0.2-0.6,0.4-1c0.2-0.5,0.4-1.1,0.6-1.6c0.2-0.5,0.5-1.1,0.7-1.6c0.1-0.3,0.3-0.6,0.4-0.9
		c0.4-0.8,0.7-1.5,1.1-2.3c0-0.1,0.1-0.2,0.1-0.2c2.8-5.3,6.5-10.3,10.9-14.8c24-24,63-24,87.1,0l45.6-45.6
		c-24.6-24.6-56.8-36.9-89.1-36.9v-0.2c-49.6,0-92.5,28.6-113.1,70.2C288.2,145.9,288.1,146,288.1,146.1z"/>
	<linearGradient id="SVGID_2_" gradientUnits="userSpaceOnUse" x1="0" y1="252.2024" x2="500" y2="252.2024">
		<stop  offset="0" style="stop-color:#5CD1FF"/>
		<stop  offset="1" style="stop-color:#3578EA"/>
	</linearGradient>
	<path class="st2" d="M500,296.7c0,0,0-0.1,0-0.1c0-2.8-0.2-5.6-0.4-8.4c0-0.1,0-0.2,0-0.4c-0.2-2.7-0.6-5.5-1-8.2
		c0-0.1,0-0.3-0.1-0.4c-0.2-1.3-0.4-2.6-0.7-3.9c0-0.1,0-0.1,0-0.2c-0.3-1.4-0.5-2.7-0.8-4.1c0-0.1,0-0.2-0.1-0.3
		c-0.3-1.2-0.6-2.4-0.9-3.7c0-0.2-0.1-0.4-0.1-0.6c-0.7-2.6-1.5-5.2-2.3-7.7c-0.1-0.2-0.2-0.5-0.2-0.7c-0.4-1.2-0.9-2.5-1.3-3.7
		c0,0,0,0,0-0.1c-0.5-1.3-1-2.5-1.5-3.8c-0.1-0.2-0.2-0.5-0.3-0.7c-0.4-1.1-0.9-2.1-1.4-3.2c-0.1-0.2-0.2-0.4-0.3-0.6
		c-0.6-1.2-1.1-2.4-1.7-3.6c-0.1-0.2-0.2-0.4-0.3-0.6c-0.5-1-1-2-1.6-3c-0.1-0.3-0.3-0.6-0.4-0.8c-0.6-1.2-1.3-2.3-2-3.5
		c0,0,0-0.1-0.1-0.1c-0.7-1.1-1.3-2.2-2-3.3c-0.2-0.3-0.4-0.6-0.6-0.9c-0.6-1-1.3-1.9-1.9-2.9c-0.1-0.2-0.2-0.3-0.3-0.5
		c-0.8-1.1-1.5-2.2-2.3-3.3c-0.2-0.3-0.4-0.5-0.6-0.8c-0.7-0.9-1.3-1.7-2-2.6c-0.2-0.3-0.4-0.5-0.6-0.8c-0.8-1-1.7-2.1-2.6-3.1
		c-0.2-0.2-0.3-0.4-0.5-0.6c-0.7-0.9-1.5-1.7-2.3-2.5c-0.3-0.3-0.5-0.5-0.8-0.8c-0.9-1-1.9-2-2.9-3l-0.1,0.1
		c-22.8-22.8-54.3-36.9-89.1-36.9v64.6c34,0,61.6,27.6,61.6,61.6c0,6.3-1,12.5-2.7,18.2c0,0.1-0.1,0.2-0.1,0.3
		c-0.3,0.8-0.5,1.6-0.8,2.4c-0.1,0.3-0.2,0.6-0.4,1c-0.2,0.5-0.4,1.1-0.6,1.6c-0.1,0.3-0.2,0.5-0.3,0.7c-0.1,0.3-0.2,0.6-0.4,0.9
		c-0.1,0.3-0.3,0.6-0.4,0.9c-0.4,0.7-0.7,1.5-1.1,2.2c0,0,0,0,0,0c0,0.1-0.1,0.2-0.1,0.2c0,0,0,0,0,0c-0.4,0.8-0.8,1.5-1.3,2.3
		c-0.2,0.3-0.3,0.5-0.5,0.8c-0.3,0.5-0.7,1.1-1,1.6c-0.2,0.3-0.3,0.5-0.5,0.8c-0.5,0.7-0.9,1.4-1.4,2c-0.1,0.1-0.1,0.2-0.2,0.2
		c-0.5,0.7-1.1,1.5-1.7,2.2c-0.2,0.2-0.4,0.4-0.5,0.7c-0.4,0.5-0.9,1.1-1.3,1.6c-0.2,0.2-0.4,0.4-0.6,0.6c-0.6,0.7-1.3,1.4-2,2.1
		c-24,24-63,24-87.1,0l-1.2-1.8l-151.1-261L0,387.9h71.5l106.6-184.7L279,379.1l5.7,8.8c0.6,0.6,1.5,1.5,2.3,2.3
		c0.3,0.3,0.6,0.5,0.9,0.8c0.5,0.5,1,0.9,1.5,1.4c0.2,0.2,0.4,0.4,0.6,0.6c0.6,0.5,1.2,1.1,1.8,1.6c0.4,0.3,0.7,0.6,1.1,0.9
		c0.4,0.4,0.9,0.7,1.3,1.1c0.5,0.4,1,0.8,1.6,1.2c0.3,0.2,0.6,0.5,0.9,0.7c0.5,0.4,1,0.8,1.5,1.2c0.3,0.2,0.7,0.5,1,0.7
		c0.5,0.4,1,0.7,1.5,1.1c0.3,0.2,0.7,0.5,1,0.7c0.5,0.3,1,0.7,1.5,1c0.4,0.2,0.7,0.5,1.1,0.7c0.7,0.5,1.4,0.9,2.1,1.3
		c0.2,0.1,0.4,0.2,0.5,0.3c0.7,0.4,1.3,0.8,2,1.2c0.2,0.1,0.4,0.3,0.7,0.4c0.7,0.4,1.3,0.8,2,1.2c0.2,0.1,0.5,0.3,0.7,0.4
		c0.7,0.4,1.4,0.8,2.1,1.2c0.2,0.1,0.4,0.2,0.6,0.3c0.8,0.4,1.6,0.8,2.4,1.2c0.1,0.1,0.2,0.1,0.3,0.2c0.8,0.4,1.6,0.8,2.4,1.1
		c0.1,0.1,0.3,0.1,0.4,0.2c0.8,0.4,1.6,0.8,2.5,1.1c0.1,0,0.2,0.1,0.3,0.1c0.9,0.4,1.7,0.7,2.6,1.1c0.1,0,0.1,0.1,0.2,0.1
		c0.9,0.4,1.9,0.7,2.8,1.1c0,0,0,0,0.1,0c0.9,0.3,1.9,0.7,2.8,1c0,0,0.1,0,0.1,0c0.9,0.3,1.9,0.6,2.8,0.9c0,0,0.1,0,0.1,0
		c1,0.3,1.9,0.6,2.9,0.9c0,0,0,0,0,0c1,0.3,1.9,0.6,2.9,0.8c0,0,0,0,0.1,0c10.8,2.9,21.9,4.4,32.9,4.4v0.2
		c44,0,82.8-22.6,105.3-56.8c0-0.1,0.1-0.2,0.1-0.2c1.4-2.2,2.8-4.3,4-6.6c0.4-0.7,0.8-1.4,1.2-2.1c0.2-0.4,0.4-0.8,0.6-1.2
		c0.6-1.1,1.2-2.2,1.7-3.3c0,0,0,0,0,0c0,0,0,0,0,0c1.5-3,2.9-6.1,4.1-9.2c0,0,0,0,0,0c0.1-0.2,0.1-0.3,0.2-0.5
		c0.7-1.8,1.4-3.7,2.1-5.6c0,0,0,0,0,0c0,0,0-0.1,0-0.1c2.4-6.9,4.1-14.1,5.2-21.2c0,0,0,0,0,0c0.4-2.8,0.8-5.7,1-8.5
		c0,0,0-0.1,0-0.1C499.9,305.3,500.1,301,500,296.7z"/>
</g>
</svg>
