<?xml version="1.0" encoding="UTF-8" standalone="no"?>
<!-- Created with Inkscape (http://www.inkscape.org/) -->

<svg
   width="43.604866mm"
   height="38.443703mm"
   viewBox="0 0 43.604866 38.443703"
   version="1.1"
   id="svg5"
   xml:space="preserve"
   xmlns:inkscape="http://www.inkscape.org/namespaces/inkscape"
   xmlns:sodipodi="http://sodipodi.sourceforge.net/DTD/sodipodi-0.dtd"
   xmlns="http://www.w3.org/2000/svg"
   xmlns:svg="http://www.w3.org/2000/svg"><sodipodi:namedview
     id="namedview7"
     pagecolor="#ffffff"
     bordercolor="#000000"
     borderopacity="0.25"
     inkscape:showpageshadow="2"
     inkscape:pageopacity="0.0"
     inkscape:pagecheckerboard="0"
     inkscape:deskcolor="#d1d1d1"
     inkscape:document-units="mm"
     showgrid="false" /><defs
     id="defs2" /><g
     inkscape:label="Layer 1"
     inkscape:groupmode="layer"
     id="layer1"
     transform="translate(-99.244563,-33.739615)"><path
       sodipodi:type="star"
       style="fill:#000000;fill-opacity:1;stroke-width:0.264583"
       id="path233-9"
       inkscape:flatsided="false"
       sodipodi:sides="3"
       sodipodi:cx="137.87823"
       sodipodi:cy="35.848343"
       sodipodi:r1="6.1639681"
       sodipodi:r2="3.081984"
       sodipodi:arg1="1.5707963"
       sodipodi:arg2="2.6179939"
       inkscape:rounded="0"
       inkscape:randomized="0"
       d="m 137.87824,42.012311 -2.66908,-4.622976 -2.66908,-4.622976 5.33815,0 5.33816,0 -2.66908,4.622976 z"
       inkscape:transform-center-x="1.3465982e-06"
       inkscape:transform-center-y="-1.3382306"
       transform="matrix(0.9088394,0,0,-0.86842106,-21.213086,88.600196)" /><path
       sodipodi:type="star"
       style="fill:#000000;fill-opacity:1;stroke-width:0.264583"
       id="path233-9-7"
       inkscape:flatsided="false"
       sodipodi:sides="3"
       sodipodi:cx="137.87823"
       sodipodi:cy="35.848343"
       sodipodi:r1="6.1639681"
       sodipodi:r2="3.081984"
       sodipodi:arg1="1.5707963"
       sodipodi:arg2="2.6179939"
       inkscape:rounded="0"
       inkscape:randomized="0"
       d="m 137.87824,42.012311 -2.66908,-4.622976 -2.66908,-4.622976 5.33815,0 5.33816,0 -2.66908,4.622976 z"
       inkscape:transform-center-x="1.3465982e-06"
       inkscape:transform-center-y="1.3382306"
       transform="matrix(0.9088394,0,0,0.86842106,12.68874,5.4062796)" /><path
       style="fill:#000000;fill-opacity:1;stroke-width:0.264583"
       d="m 114.35783,33.901827 18.00528,38.281488 -6.16397,-0.162211 -15.0855,-32.604149 z"
       id="path510" /><path
       style="fill:#000000;fill-opacity:1;stroke-width:0.264583"
       d="m 124.57704,33.739616 c 0,0 0.97326,9.894792 9.24596,10.381422 8.27269,0.486627 10.60946,12.302975 5.79907,15.76461 0,0 -0.73899,-9.184756 -7.42117,-10.087271 -9.59397,-1.295791 -11.84131,-10.057003 -7.62386,-16.058761 z"
       id="path512"
       sodipodi:nodetypes="csssc" /></g></svg>
